<svg width="30" height="30" viewBox="0 0 30 30" fill="none" xmlns="http://www.w3.org/2000/svg">
    <path d="M15 0C12.0333 0 9.13319 0.879735 6.66645 2.52796C4.19972 4.17618 2.27713 6.51886 1.14181 9.25975C0.00649941 12.0006 -0.290551 15.0166 0.288227 17.9264C0.867006 20.8361 2.29562 23.5088 4.3934 25.6066C6.49119 27.7044 9.16394 29.133 12.0737 29.7118C14.9834 30.2906 17.9994 29.9935 20.7403 28.8582C23.4811 27.7229 25.8238 25.8003 27.472 23.3336C29.1203 20.8668 30 17.9667 30 15C30 11.0218 28.4197 7.20644 25.6066 4.3934C22.7936 1.58035 18.9783 0 15 0ZM15 28C12.4288 28 9.91543 27.2376 7.77759 25.8091C5.63975 24.3806 3.97351 22.3503 2.98957 19.9749C2.00563 17.5994 1.74819 14.9856 2.2498 12.4638C2.75141 9.94207 3.98954 7.62569 5.80762 5.80761C7.6257 3.98953 9.94208 2.7514 12.4638 2.24979C14.9856 1.74818 17.5995 2.00563 19.9749 2.98957C22.3503 3.97351 24.3807 5.63975 25.8091 7.77759C27.2376 9.91543 28 12.4288 28 15C28 18.4478 26.6304 21.7544 24.1924 24.1924C21.7544 26.6304 18.4478 28 15 28Z" fill="white"/>
    <path d="M14 7H16V19H14V7Z" fill="white"/>
    <path d="M14 21H16V23H14V21Z" fill="white"/>
</svg>
